# MagicaVoxel @ Ephtracy

# group
o 

# material
mtllib normal.mtl
usemtl palette

# normals
vn -1 0 0
vn 1 0 0
vn 0 0 1
vn 0 0 -1
vn 0 -1 0
vn 0 1 0

# texcoords
vt 0.396484 0.5
vt 0.560547 0.5
vt 0.857422 0.5

# verts
v -2 0 2
v -2 0 -2
v -2 0.7 1.9
v -2 0.7 1.6
v -2 0.7 1
v -2 0.7 0.6
v -2 0.7 0.0999999
v -2 0.7 -2.38419e-07
v -2 0.7 -0.5
v -2 0.7 -0.7
v -2 0.7 -0.8
v -2 0.7 -1.2
v -2 0.7 -1.3
v -2 0.7 -1.4
v -2 0.7 -1.5
v -2 0.7 -1.6
v -2 0.7 -1.9
v -2 0.7 -2
v -2 0.8 2
v -2 0.8 1.9
v -2 0.8 1.6
v -2 0.8 1.5
v -2 0.8 1.1
v -2 0.8 1
v -2 0.8 0.6
v -2 0.8 0.5
v -2 0.8 0.3
v -2 0.8 0.0999999
v -2 0.8 -2.38419e-07
v -2 0.8 -0.1
v -2 0.8 -0.7
v -2 0.8 -0.8
v -2 0.8 -1.2
v -2 0.8 -1.3
v -2 0.8 -1.4
v -2 0.8 -1.5
v -2 0.8 -1.7
v -2 0.8 -1.8
v -2 0.9 1.5
v -2 0.9 1.1
v -2 0.9 0.5
v -2 0.9 0.3
v -2 0.9 -0.3
v -2 0.9 -0.5
v -2 0.9 -1.6
v -2 0.9 -1.7
v -2 0.9 -1.8
v -2 0.9 -1.9
v -2 1 -0.1
v -2 1 -0.3
v -2 2.4 2
v -2 2.4 1.8
v -2 2.4 1.2
v -2 2.4 1
v -2 2.4 0.0999999
v -2 2.4 -0.5
v -2 2.4 -1.1
v -2 2.4 -1.4
v -2 2.5 1.8
v -2 2.5 1.7
v -2 2.5 1.4
v -2 2.5 1.2
v -2 2.5 1
v -2 2.5 0.9
v -2 2.5 0.8
v -2 2.5 0.6
v -2 2.5 0.3
v -2 2.5 0.0999999
v -2 2.5 -0.5
v -2 2.5 -1.1
v -2 2.5 -1.5
v -2 2.5 -1.6
v -2 2.5 -1.8
v -2 2.5 -2
v -2 2.6 1.7
v -2 2.6 1.4
v -2 2.6 0.9
v -2 2.6 0.8
v -2 2.6 0.6
v -2 2.6 0.3
v -2 2.6 -1.4
v -2 2.6 -1.5
v -2 2.6 -1.6
v -2 2.6 -1.8
v -2 4 2
v -2 4 -2
v 2 0 2
v 2 0 -2
v 2 0.7 1.9
v 2 0.7 1.6
v 2 0.7 0.4
v 2 0.7 -0.4
v 2 0.7 -1
v 2 0.7 -1.5
v 2 0.7 -1.6
v 2 0.7 -1.9
v 2 0.8 2
v 2 0.8 1.9
v 2 0.8 1.6
v 2 0.8 1.4
v 2 0.8 -0.4
v 2 0.8 -0.5
v 2 0.8 -0.8
v 2 0.8 -1
v 2 0.8 -1.9
v 2 0.8 -2
v 2 0.9 1.4
v 2 0.9 1.1
v 2 0.9 0.7
v 2 0.9 0.4
v 2 0.9 -0.5
v 2 0.9 -0.8
v 2 0.9 -1.5
v 2 0.9 -1.6
v 2 1 1.1
v 2 1 0.7
v 2 2.4 1.4
v 2 2.4 1.2
v 2 2.4 0.5
v 2 2.4 -0.2
v 2 2.4 -0.3
v 2 2.4 -0.6
v 2 2.4 -0.7
v 2 2.4 -1.1
v 2 2.4 -1.8
v 2 2.4 -2
v 2 2.5 2
v 2 2.5 1.8
v 2 2.5 1.2
v 2 2.5 1
v 2 2.5 0.9
v 2 2.5 0.8
v 2 2.5 0.7
v 2 2.5 0.5
v 2 2.5 -0.2
v 2 2.5 -0.3
v 2 2.5 -0.6
v 2 2.5 -0.7
v 2 2.5 -1.1
v 2 2.5 -1.3
v 2 2.5 -1.6
v 2 2.5 -1.8
v 2 2.6 1.8
v 2 2.6 1.4
v 2 2.6 1
v 2 2.6 0.9
v 2 2.6 0.8
v 2 2.6 0.7
v 2 2.6 -1.3
v 2 2.6 -1.6
v 2 4 2
v 2 4 -2
v -2 0 2
v -2 0.8 2
v -2 2.4 2
v -2 4 2
v -1.9 2.4 2
v -1.9 2.5 2
v -1.7 0.8 2
v -1.7 0.9 2
v -1.5 0.9 2
v -1.5 1 2
v -1.5 2.5 2
v -1.5 2.6 2
v -1.3 2.5 2
v -1.3 2.6 2
v -1.2 0.8 2
v -1.2 1 2
v -1.2 2.4 2
v -1.2 2.5 2
v -0.9 2.4 2
v -0.9 2.5 2
v -0.7 0.7 2
v -0.7 0.8 2
v -0.6 0.7 2
v -0.6 0.8 2
v -0.5 0.7 2
v -0.5 0.8 2
v -0.5 2.4 2
v -0.5 2.5 2
v -0.4 2.4 2
v -0.4 2.5 2
v -0.3 2.4 2
v -0.3 2.5 2
v -0.0999999 0.7 2
v -0.0999999 0.8 2
v 2.38419e-07 0.8 2
v 2.38419e-07 0.9 2
v 2.38419e-07 2.4 2
v 2.38419e-07 2.5 2
v 0.1 0.7 2
v 0.1 0.9 2
v 0.3 0.7 2
v 0.3 0.8 2
v 0.3 2.5 2
v 0.3 2.6 2
v 0.4 0.7 2
v 0.4 0.8 2
v 0.4 2.5 2
v 0.4 2.6 2
v 0.5 2.4 2
v 0.5 2.5 2
v 0.7 0.7 2
v 0.7 0.8 2
v 0.8 0.8 2
v 0.8 1 2
v 1 0.9 2
v 1 1 2
v 1 2.4 2
v 1 2.5 2
v 1.1 0.8 2
v 1.1 0.9 2
v 1.1 2.4 2
v 1.1 2.5 2
v 1.5 0.7 2
v 1.5 0.8 2
v 1.5 2.4 2
v 1.5 2.5 2
v 1.6 2.4 2
v 1.6 2.5 2
v 1.7 0.7 2
v 1.7 0.8 2
v 1.8 2.4 2
v 1.8 2.5 2
v 2 0 2
v 2 0.8 2
v 2 2.5 2
v 2 4 2
v -2 0 -2
v -2 0.7 -2
v -2 2.5 -2
v -2 4 -2
v -1.9 2.4 -2
v -1.9 2.5 -2
v -1.8 0.7 -2
v -1.8 0.8 -2
v -1.7 0.7 -2
v -1.7 0.8 -2
v -1.7 2.4 -2
v -1.7 2.5 -2
v -1.5 2.5 -2
v -1.5 2.6 -2
v -1.4 2.4 -2
v -1.4 2.6 -2
v -1.3 0.7 -2
v -1.3 0.8 -2
v -1.2 0.7 -2
v -1.2 0.8 -2
v -1.1 2.4 -2
v -1.1 2.5 -2
v -1 2.5 -2
v -1 2.6 -2
v -0.9 2.5 -2
v -0.9 2.6 -2
v -0.7 2.5 -2
v -0.7 2.6 -2
v -0.3 0.7 -2
v -0.3 0.8 -2
v -0.3 2.5 -2
v -0.3 2.6 -2
v -0.2 0.7 -2
v -0.2 0.8 -2
v -0.0999999 2.4 -2
v -0.0999999 2.5 -2
v 0.1 0.7 -2
v 0.1 0.8 -2
v 0.2 2.4 -2
v 0.2 2.5 -2
v 0.4 2.5 -2
v 0.4 2.6 -2
v 0.5 0.7 -2
v 0.5 0.8 -2
v 0.5 2.5 -2
v 0.5 2.6 -2
v 0.6 2.4 -2
v 0.6 2.5 -2
v 0.9 2.4 -2
v 0.9 2.5 -2
v 1 0.7 -2
v 1 0.8 -2
v 1 2.5 -2
v 1 2.6 -2
v 1.1 0.8 -2
v 1.1 0.9 -2
v 1.1 2.4 -2
v 1.1 2.6 -2
v 1.3 0.8 -2
v 1.3 0.9 -2
v 1.3 2.4 -2
v 1.3 2.5 -2
v 1.4 2.4 -2
v 1.4 2.5 -2
v 1.6 0.7 -2
v 1.6 0.8 -2
v 1.7 2.4 -2
v 1.7 2.5 -2
v 1.8 2.4 -2
v 1.8 2.5 -2
v 1.9 0.7 -2
v 1.9 0.8 -2
v 2 0 -2
v 2 0.8 -2
v 2 2.4 -2
v 2 4 -2
v -2 0 2
v 2 0 2
v -2 0 -2
v 2 0 -2
v -2 4 2
v 2 4 2
v -2 4 -2
v 2 4 -2

# faces
f 3/2/1 2/2/1 1/2/1
f 4/2/1 2/2/1 3/2/1
f 5/2/1 2/2/1 4/2/1
f 6/2/1 2/2/1 5/2/1
f 7/2/1 2/2/1 6/2/1
f 8/2/1 2/2/1 7/2/1
f 9/2/1 2/2/1 8/2/1
f 10/2/1 2/2/1 9/2/1
f 11/2/1 2/2/1 10/2/1
f 12/2/1 2/2/1 11/2/1
f 13/2/1 2/2/1 12/2/1
f 14/2/1 2/2/1 13/2/1
f 15/2/1 2/2/1 14/2/1
f 16/2/1 2/2/1 15/2/1
f 17/2/1 2/2/1 16/2/1
f 18/2/1 2/2/1 17/2/1
f 19/2/1 3/2/1 1/2/1
f 20/3/1 4/3/1 3/3/1
f 20/2/1 3/2/1 19/2/1
f 21/2/1 5/2/1 4/2/1
f 21/3/1 4/3/1 20/3/1
f 22/2/1 5/2/1 21/2/1
f 23/2/1 5/2/1 22/2/1
f 24/3/1 6/3/1 5/3/1
f 24/2/1 5/2/1 23/2/1
f 25/2/1 7/2/1 6/2/1
f 25/3/1 6/3/1 24/3/1
f 26/2/1 7/2/1 25/2/1
f 27/2/1 7/2/1 26/2/1
f 28/3/1 8/3/1 7/3/1
f 28/2/1 7/2/1 27/2/1
f 29/2/1 9/2/1 8/2/1
f 29/3/1 8/3/1 28/3/1
f 30/2/1 9/2/1 29/2/1
f 31/3/1 10/3/1 9/3/1
f 31/2/1 11/2/1 10/2/1
f 32/3/1 12/3/1 11/3/1
f 32/2/1 11/2/1 31/2/1
f 33/2/1 13/2/1 12/2/1
f 33/3/1 12/3/1 32/3/1
f 34/3/1 14/3/1 13/3/1
f 34/2/1 13/2/1 33/2/1
f 35/2/1 15/2/1 14/2/1
f 35/3/1 14/3/1 34/3/1
f 36/3/1 16/3/1 15/3/1
f 36/2/1 15/2/1 35/2/1
f 37/2/1 17/2/1 16/2/1
f 38/2/1 17/2/1 37/2/1
f 39/3/1 20/3/1 19/3/1
f 39/2/1 23/2/1 22/2/1
f 39/3/1 21/3/1 20/3/1
f 39/3/1 22/3/1 21/3/1
f 40/3/1 24/3/1 23/3/1
f 40/2/1 23/2/1 39/2/1
f 40/3/1 25/3/1 24/3/1
f 40/3/1 26/3/1 25/3/1
f 41/2/1 27/2/1 26/2/1
f 41/3/1 26/3/1 40/3/1
f 42/3/1 28/3/1 27/3/1
f 42/2/1 27/2/1 41/2/1
f 42/3/1 30/3/1 29/3/1
f 42/3/1 29/3/1 28/3/1
f 43/2/1 9/2/1 30/2/1
f 44/3/1 36/3/1 35/3/1
f 44/2/1 9/2/1 43/2/1
f 44/3/1 31/3/1 9/3/1
f 44/3/1 32/3/1 31/3/1
f 44/3/1 33/3/1 32/3/1
f 44/3/1 34/3/1 33/3/1
f 44/3/1 35/3/1 34/3/1
f 45/2/1 37/2/1 16/2/1
f 45/3/1 36/3/1 44/3/1
f 45/3/1 16/3/1 36/3/1
f 46/3/1 38/3/1 37/3/1
f 46/2/1 37/2/1 45/2/1
f 47/2/1 17/2/1 38/2/1
f 47/3/1 38/3/1 46/3/1
f 48/3/1 18/3/1 17/3/1
f 48/2/1 17/2/1 47/2/1
f 49/3/1 40/3/1 39/3/1
f 49/3/1 41/3/1 40/3/1
f 49/3/1 30/3/1 42/3/1
f 49/2/1 43/2/1 30/2/1
f 49/3/1 42/3/1 41/3/1
f 50/3/1 46/3/1 45/3/1
f 50/2/1 43/2/1 49/2/1
f 50/3/1 45/3/1 44/3/1
f 50/3/1 44/3/1 43/3/1
f 50/3/1 47/3/1 46/3/1
f 50/3/1 48/3/1 47/3/1
f 51/3/1 49/3/1 39/3/1
f 51/3/1 39/3/1 19/3/1
f 51/3/1 50/3/1 49/3/1
f 52/3/1 50/3/1 51/3/1
f 53/3/1 50/3/1 52/3/1
f 54/3/1 50/3/1 53/3/1
f 55/3/1 50/3/1 54/3/1
f 56/3/1 48/3/1 50/3/1
f 56/3/1 50/3/1 55/3/1
f 57/3/1 48/3/1 56/3/1
f 58/3/1 48/3/1 57/3/1
f 59/1/1 52/1/1 51/1/1
f 59/3/1 53/3/1 52/3/1
f 60/3/1 53/3/1 59/3/1
f 61/3/1 53/3/1 60/3/1
f 62/1/1 54/1/1 53/1/1
f 62/3/1 53/3/1 61/3/1
f 63/3/1 55/3/1 54/3/1
f 63/1/1 54/1/1 62/1/1
f 64/3/1 55/3/1 63/3/1
f 65/3/1 55/3/1 64/3/1
f 66/3/1 55/3/1 65/3/1
f 67/3/1 55/3/1 66/3/1
f 68/1/1 56/1/1 55/1/1
f 68/3/1 55/3/1 67/3/1
f 69/3/1 57/3/1 56/3/1
f 69/1/1 56/1/1 68/1/1
f 70/1/1 58/1/1 57/1/1
f 70/3/1 57/3/1 69/3/1
f 71/3/1 48/3/1 58/3/1
f 72/3/1 48/3/1 71/3/1
f 73/3/1 48/3/1 72/3/1
f 74/3/1 18/3/1 48/3/1
f 74/3/1 48/3/1 73/3/1
f 75/3/1 61/3/1 60/3/1
f 75/1/1 60/1/1 59/1/1
f 76/1/1 62/1/1 61/1/1
f 76/3/1 61/3/1 75/3/1
f 76/1/1 63/1/1 62/1/1
f 76/1/1 64/1/1 63/1/1
f 77/3/1 65/3/1 64/3/1
f 77/1/1 64/1/1 76/1/1
f 78/1/1 66/1/1 65/1/1
f 78/3/1 65/3/1 77/3/1
f 79/3/1 67/3/1 66/3/1
f 79/1/1 66/1/1 78/1/1
f 80/1/1 69/1/1 68/1/1
f 80/3/1 67/3/1 79/3/1
f 80/1/1 68/1/1 67/1/1
f 80/1/1 70/1/1 69/1/1
f 81/1/1 58/1/1 70/1/1
f 81/1/1 70/1/1 80/1/1
f 81/3/1 71/3/1 58/3/1
f 82/1/1 72/1/1 71/1/1
f 82/3/1 71/3/1 81/3/1
f 83/3/1 73/3/1 72/3/1
f 83/1/1 72/1/1 82/1/1
f 84/1/1 74/1/1 73/1/1
f 84/3/1 73/3/1 83/3/1
f 85/1/1 75/1/1 59/1/1
f 85/1/1 82/1/1 81/1/1
f 85/1/1 84/1/1 83/1/1
f 85/1/1 76/1/1 75/1/1
f 85/1/1 81/1/1 80/1/1
f 85/1/1 83/1/1 82/1/1
f 85/1/1 59/1/1 51/1/1
f 85/1/1 77/1/1 76/1/1
f 85/1/1 78/1/1 77/1/1
f 85/1/1 80/1/1 79/1/1
f 85/1/1 79/1/1 78/1/1
f 86/1/1 74/1/1 84/1/1
f 86/1/1 84/1/1 85/1/1
f 87/2/2 88/2/2 89/2/2
f 89/2/2 88/2/2 90/2/2
f 90/2/2 88/2/2 91/2/2
f 91/2/2 88/2/2 92/2/2
f 92/2/2 88/2/2 93/2/2
f 93/2/2 88/2/2 94/2/2
f 94/2/2 88/2/2 95/2/2
f 95/2/2 88/2/2 96/2/2
f 87/2/2 89/2/2 97/2/2
f 89/3/2 90/3/2 98/3/2
f 97/2/2 89/2/2 98/2/2
f 90/2/2 91/2/2 99/2/2
f 98/3/2 90/3/2 99/3/2
f 99/2/2 91/2/2 100/2/2
f 91/3/2 92/3/2 101/3/2
f 92/2/2 93/2/2 101/2/2
f 101/2/2 93/2/2 102/2/2
f 102/2/2 93/2/2 103/2/2
f 93/3/2 94/3/2 104/3/2
f 103/2/2 93/2/2 104/2/2
f 96/2/2 88/2/2 105/2/2
f 95/3/2 96/3/2 105/3/2
f 105/2/2 88/2/2 106/2/2
f 97/3/2 98/3/2 107/3/2
f 100/2/2 91/2/2 107/2/2
f 99/3/2 100/3/2 107/3/2
f 98/3/2 99/3/2 107/3/2
f 107/2/2 91/2/2 108/2/2
f 108/2/2 91/2/2 109/2/2
f 101/3/2 102/3/2 110/3/2
f 109/2/2 91/2/2 110/2/2
f 91/3/2 101/3/2 110/3/2
f 102/2/2 103/2/2 111/2/2
f 110/3/2 102/3/2 111/3/2
f 103/3/2 104/3/2 112/3/2
f 111/2/2 103/2/2 112/2/2
f 104/3/2 94/3/2 113/3/2
f 112/3/2 104/3/2 113/3/2
f 94/2/2 95/2/2 113/2/2
f 105/3/2 106/3/2 114/3/2
f 113/2/2 95/2/2 114/2/2
f 95/3/2 105/3/2 114/3/2
f 107/3/2 108/3/2 115/3/2
f 108/2/2 109/2/2 115/2/2
f 111/3/2 112/3/2 116/3/2
f 115/2/2 109/2/2 116/2/2
f 112/3/2 113/3/2 116/3/2
f 113/3/2 114/3/2 116/3/2
f 110/3/2 111/3/2 116/3/2
f 109/3/2 110/3/2 116/3/2
f 107/3/2 115/3/2 117/3/2
f 97/3/2 107/3/2 117/3/2
f 115/3/2 116/3/2 117/3/2
f 117/3/2 116/3/2 118/3/2
f 116/3/2 114/3/2 119/3/2
f 118/3/2 116/3/2 119/3/2
f 119/3/2 114/3/2 120/3/2
f 120/3/2 114/3/2 121/3/2
f 121/3/2 114/3/2 122/3/2
f 122/3/2 114/3/2 123/3/2
f 123/3/2 114/3/2 124/3/2
f 114/3/2 106/3/2 125/3/2
f 124/3/2 114/3/2 125/3/2
f 125/3/2 106/3/2 126/3/2
f 97/3/2 117/3/2 127/3/2
f 127/3/2 117/3/2 128/3/2
f 117/1/2 118/1/2 129/1/2
f 118/3/2 119/3/2 129/3/2
f 129/3/2 119/3/2 130/3/2
f 130/3/2 119/3/2 131/3/2
f 131/3/2 119/3/2 132/3/2
f 132/3/2 119/3/2 133/3/2
f 119/1/2 120/1/2 134/1/2
f 133/3/2 119/3/2 134/3/2
f 120/3/2 121/3/2 135/3/2
f 134/1/2 120/1/2 135/1/2
f 121/1/2 122/1/2 136/1/2
f 135/3/2 121/3/2 136/3/2
f 122/3/2 123/3/2 137/3/2
f 136/1/2 122/1/2 137/1/2
f 123/1/2 124/1/2 138/1/2
f 137/3/2 123/3/2 138/3/2
f 124/3/2 125/3/2 139/3/2
f 138/1/2 124/1/2 139/1/2
f 139/3/2 125/3/2 140/3/2
f 140/3/2 125/3/2 141/3/2
f 125/1/2 126/1/2 142/1/2
f 141/3/2 125/3/2 142/3/2
f 128/3/2 117/3/2 143/3/2
f 127/1/2 128/1/2 143/1/2
f 117/1/2 129/1/2 144/1/2
f 143/3/2 117/3/2 144/3/2
f 129/1/2 130/1/2 144/1/2
f 130/3/2 131/3/2 145/3/2
f 144/1/2 130/1/2 145/1/2
f 131/1/2 132/1/2 146/1/2
f 145/3/2 131/3/2 146/3/2
f 132/3/2 133/3/2 147/3/2
f 146/1/2 132/1/2 147/1/2
f 136/1/2 137/1/2 148/1/2
f 147/3/2 133/3/2 148/3/2
f 133/1/2 134/1/2 148/1/2
f 138/1/2 139/1/2 148/1/2
f 134/1/2 135/1/2 148/1/2
f 135/1/2 136/1/2 148/1/2
f 139/1/2 140/1/2 148/1/2
f 137/1/2 138/1/2 148/1/2
f 140/3/2 141/3/2 149/3/2
f 148/1/2 140/1/2 149/1/2
f 141/1/2 142/1/2 150/1/2
f 149/3/2 141/3/2 150/3/2
f 146/1/2 147/1/2 151/1/2
f 148/1/2 149/1/2 151/1/2
f 149/1/2 150/1/2 151/1/2
f 147/1/2 148/1/2 151/1/2
f 145/1/2 146/1/2 151/1/2
f 127/1/2 143/1/2 151/1/2
f 143/1/2 144/1/2 151/1/2
f 144/1/2 145/1/2 151/1/2
f 142/1/2 126/1/2 152/1/2
f 151/1/2 150/1/2 152/1/2
f 150/1/2 142/1/2 152/1/2
f 157/3/3 155/3/3 154/3/3
f 157/1/3 156/1/3 155/1/3
f 158/1/3 156/1/3 157/1/3
f 159/2/3 154/2/3 153/2/3
f 159/3/3 157/3/3 154/3/3
f 159/3/3 158/3/3 157/3/3
f 160/3/3 158/3/3 159/3/3
f 161/2/3 160/2/3 159/2/3
f 161/3/3 158/3/3 160/3/3
f 162/3/3 158/3/3 161/3/3
f 163/1/3 156/1/3 158/1/3
f 163/3/3 158/3/3 162/3/3
f 164/1/3 156/1/3 163/1/3
f 165/3/3 163/3/3 162/3/3
f 165/3/3 164/3/3 163/3/3
f 166/1/3 156/1/3 164/1/3
f 166/3/3 164/3/3 165/3/3
f 167/2/3 162/2/3 161/2/3
f 167/2/3 159/2/3 153/2/3
f 167/2/3 161/2/3 159/2/3
f 168/3/3 165/3/3 162/3/3
f 168/2/3 162/2/3 167/2/3
f 169/3/3 165/3/3 168/3/3
f 170/1/3 166/1/3 165/1/3
f 170/3/3 165/3/3 169/3/3
f 171/3/3 169/3/3 168/3/3
f 171/3/3 168/3/3 167/3/3
f 171/1/3 170/1/3 169/1/3
f 172/1/3 166/1/3 170/1/3
f 172/1/3 170/1/3 171/1/3
f 173/2/3 167/2/3 153/2/3
f 174/3/3 171/3/3 167/3/3
f 174/2/3 167/2/3 173/2/3
f 174/3/3 172/3/3 171/3/3
f 175/2/3 173/2/3 153/2/3
f 175/3/3 174/3/3 173/3/3
f 176/3/3 172/3/3 174/3/3
f 176/3/3 174/3/3 175/3/3
f 177/2/3 175/2/3 153/2/3
f 177/2/3 176/2/3 175/2/3
f 178/3/3 172/3/3 176/3/3
f 178/2/3 176/2/3 177/2/3
f 179/3/3 172/3/3 178/3/3
f 180/1/3 166/1/3 172/1/3
f 180/3/3 172/3/3 179/3/3
f 181/3/3 179/3/3 178/3/3
f 181/3/3 178/3/3 177/3/3
f 181/1/3 180/1/3 179/1/3
f 182/1/3 166/1/3 180/1/3
f 182/1/3 180/1/3 181/1/3
f 183/3/3 181/3/3 177/3/3
f 183/3/3 182/3/3 181/3/3
f 184/1/3 166/1/3 182/1/3
f 184/3/3 182/3/3 183/3/3
f 185/2/3 177/2/3 153/2/3
f 185/3/3 183/3/3 177/3/3
f 186/3/3 183/3/3 185/3/3
f 187/2/3 186/2/3 185/2/3
f 187/3/3 183/3/3 186/3/3
f 188/3/3 183/3/3 187/3/3
f 189/1/3 184/1/3 183/1/3
f 189/3/3 183/3/3 188/3/3
f 190/1/3 166/1/3 184/1/3
f 190/1/3 184/1/3 189/1/3
f 191/2/3 188/2/3 187/2/3
f 191/2/3 185/2/3 153/2/3
f 191/2/3 187/2/3 185/2/3
f 192/3/3 189/3/3 188/3/3
f 192/2/3 188/2/3 191/2/3
f 192/3/3 190/3/3 189/3/3
f 193/2/3 191/2/3 153/2/3
f 193/3/3 192/3/3 191/3/3
f 194/3/3 192/3/3 193/3/3
f 195/3/3 190/3/3 192/3/3
f 195/3/3 192/3/3 194/3/3
f 195/1/3 166/1/3 190/1/3
f 196/1/3 156/1/3 166/1/3
f 196/1/3 166/1/3 195/1/3
f 197/2/3 194/2/3 193/2/3
f 197/2/3 193/2/3 153/2/3
f 198/3/3 195/3/3 194/3/3
f 198/2/3 194/2/3 197/2/3
f 198/3/3 196/3/3 195/3/3
f 199/3/3 196/3/3 198/3/3
f 200/1/3 156/1/3 196/1/3
f 200/3/3 196/3/3 199/3/3
f 201/3/3 199/3/3 198/3/3
f 201/3/3 198/3/3 197/3/3
f 202/1/3 200/1/3 199/1/3
f 202/3/3 199/3/3 201/3/3
f 203/2/3 197/2/3 153/2/3
f 203/3/3 201/3/3 197/3/3
f 204/3/3 201/3/3 203/3/3
f 205/2/3 204/2/3 203/2/3
f 205/3/3 201/3/3 204/3/3
f 206/3/3 201/3/3 205/3/3
f 207/2/3 206/2/3 205/2/3
f 208/3/3 201/3/3 206/3/3
f 208/2/3 206/2/3 207/2/3
f 209/1/3 202/1/3 201/1/3
f 209/3/3 201/3/3 208/3/3
f 210/1/3 200/1/3 202/1/3
f 210/1/3 202/1/3 209/1/3
f 211/2/3 205/2/3 203/2/3
f 211/2/3 207/2/3 205/2/3
f 212/3/3 209/3/3 208/3/3
f 212/2/3 207/2/3 211/2/3
f 212/3/3 208/3/3 207/3/3
f 212/3/3 210/3/3 209/3/3
f 213/3/3 210/3/3 212/3/3
f 214/1/3 200/1/3 210/1/3
f 214/3/3 210/3/3 213/3/3
f 215/2/3 211/2/3 203/2/3
f 215/2/3 203/2/3 153/2/3
f 216/3/3 213/3/3 212/3/3
f 216/2/3 211/2/3 215/2/3
f 216/3/3 212/3/3 211/3/3
f 217/1/3 214/1/3 213/1/3
f 217/3/3 213/3/3 216/3/3
f 218/1/3 200/1/3 214/1/3
f 218/1/3 214/1/3 217/1/3
f 219/3/3 217/3/3 216/3/3
f 219/3/3 216/3/3 215/3/3
f 219/3/3 218/3/3 217/3/3
f 220/1/3 200/1/3 218/1/3
f 220/3/3 218/3/3 219/3/3
f 221/3/3 219/3/3 215/3/3
f 221/2/3 215/2/3 153/2/3
f 222/3/3 219/3/3 221/3/3
f 223/1/3 220/1/3 219/1/3
f 223/3/3 219/3/3 222/3/3
f 224/1/3 200/1/3 220/1/3
f 224/1/3 220/1/3 223/1/3
f 225/2/3 222/2/3 221/2/3
f 225/2/3 221/2/3 153/2/3
f 226/3/3 223/3/3 222/3/3
f 226/2/3 222/2/3 225/2/3
f 226/3/3 224/3/3 223/3/3
f 227/1/3 200/1/3 224/1/3
f 227/3/3 224/3/3 226/3/3
f 228/1/3 156/1/3 200/1/3
f 228/1/3 200/1/3 227/1/3
f 230/3/4 231/3/4 233/3/4
f 231/1/4 232/1/4 234/1/4
f 233/3/4 231/3/4 234/3/4
f 229/2/4 230/2/4 235/2/4
f 230/3/4 233/3/4 235/3/4
f 235/3/4 233/3/4 236/3/4
f 229/2/4 235/2/4 237/2/4
f 235/2/4 236/2/4 237/2/4
f 236/3/4 233/3/4 238/3/4
f 237/2/4 236/2/4 238/2/4
f 233/1/4 234/1/4 239/1/4
f 238/3/4 233/3/4 239/3/4
f 234/1/4 232/1/4 240/1/4
f 239/1/4 234/1/4 240/1/4
f 238/3/4 239/3/4 241/3/4
f 240/1/4 232/1/4 241/1/4
f 239/3/4 240/3/4 241/3/4
f 237/3/4 238/3/4 241/3/4
f 241/1/4 232/1/4 242/1/4
f 237/3/4 241/3/4 243/3/4
f 241/3/4 242/3/4 243/3/4
f 242/1/4 232/1/4 244/1/4
f 243/3/4 242/3/4 244/3/4
f 229/2/4 237/2/4 245/2/4
f 237/3/4 243/3/4 245/3/4
f 245/3/4 243/3/4 246/3/4
f 229/2/4 245/2/4 247/2/4
f 245/2/4 246/2/4 247/2/4
f 246/3/4 243/3/4 248/3/4
f 247/2/4 246/2/4 248/2/4
f 243/1/4 244/1/4 249/1/4
f 248/3/4 243/3/4 249/3/4
f 247/3/4 248/3/4 249/3/4
f 249/1/4 244/1/4 250/1/4
f 249/3/4 250/3/4 251/3/4
f 250/1/4 244/1/4 251/1/4
f 244/1/4 232/1/4 252/1/4
f 251/1/4 244/1/4 252/1/4
f 249/3/4 251/3/4 253/3/4
f 251/3/4 252/3/4 253/3/4
f 252/1/4 232/1/4 254/1/4
f 253/3/4 252/3/4 254/3/4
f 249/3/4 253/3/4 255/3/4
f 253/1/4 254/1/4 255/1/4
f 254/1/4 232/1/4 256/1/4
f 255/1/4 254/1/4 256/1/4
f 249/3/4 255/3/4 257/3/4
f 229/2/4 247/2/4 257/2/4
f 255/3/4 256/3/4 257/3/4
f 247/3/4 249/3/4 257/3/4
f 257/3/4 256/3/4 258/3/4
f 258/3/4 256/3/4 259/3/4
f 256/1/4 232/1/4 260/1/4
f 259/3/4 256/3/4 260/3/4
f 229/2/4 257/2/4 261/2/4
f 257/2/4 258/2/4 261/2/4
f 258/3/4 259/3/4 262/3/4
f 261/2/4 258/2/4 262/2/4
f 261/3/4 262/3/4 263/3/4
f 262/3/4 259/3/4 263/3/4
f 259/1/4 260/1/4 264/1/4
f 263/3/4 259/3/4 264/3/4
f 229/2/4 261/2/4 265/2/4
f 261/3/4 263/3/4 265/3/4
f 265/3/4 263/3/4 266/3/4
f 263/1/4 264/1/4 267/1/4
f 266/3/4 263/3/4 267/3/4
f 264/1/4 260/1/4 268/1/4
f 267/1/4 264/1/4 268/1/4
f 267/3/4 268/3/4 269/3/4
f 268/1/4 260/1/4 269/1/4
f 260/1/4 232/1/4 270/1/4
f 269/1/4 260/1/4 270/1/4
f 265/2/4 266/2/4 271/2/4
f 229/2/4 265/2/4 271/2/4
f 266/3/4 267/3/4 272/3/4
f 271/2/4 266/2/4 272/2/4
f 267/3/4 269/3/4 272/3/4
f 269/3/4 270/3/4 272/3/4
f 272/3/4 270/3/4 273/3/4
f 270/1/4 232/1/4 274/1/4
f 273/3/4 270/3/4 274/3/4
f 272/3/4 273/3/4 275/3/4
f 271/3/4 272/3/4 275/3/4
f 273/1/4 274/1/4 276/1/4
f 275/3/4 273/3/4 276/3/4
f 271/3/4 275/3/4 277/3/4
f 275/1/4 276/1/4 277/1/4
f 276/1/4 274/1/4 278/1/4
f 277/1/4 276/1/4 278/1/4
f 229/2/4 271/2/4 279/2/4
f 271/3/4 277/3/4 279/3/4
f 277/3/4 278/3/4 279/3/4
f 279/3/4 278/3/4 280/3/4
f 278/1/4 274/1/4 281/1/4
f 280/3/4 278/3/4 281/3/4
f 274/1/4 232/1/4 282/1/4
f 281/1/4 274/1/4 282/1/4
f 279/2/4 280/2/4 283/2/4
f 280/3/4 281/3/4 283/3/4
f 281/3/4 282/3/4 283/3/4
f 283/3/4 282/3/4 284/3/4
f 284/3/4 282/3/4 285/3/4
f 282/1/4 232/1/4 286/1/4
f 285/3/4 282/3/4 286/3/4
f 279/2/4 283/2/4 287/2/4
f 283/2/4 284/2/4 287/2/4
f 284/3/4 285/3/4 288/3/4
f 287/2/4 284/2/4 288/2/4
f 285/1/4 286/1/4 289/1/4
f 288/3/4 285/3/4 289/3/4
f 289/1/4 286/1/4 290/1/4
f 287/3/4 288/3/4 291/3/4
f 288/3/4 289/3/4 291/3/4
f 289/3/4 290/3/4 291/3/4
f 290/1/4 286/1/4 292/1/4
f 291/3/4 290/3/4 292/3/4
f 279/2/4 287/2/4 293/2/4
f 229/2/4 279/2/4 293/2/4
f 287/3/4 291/3/4 294/3/4
f 293/2/4 287/2/4 294/2/4
f 291/1/4 292/1/4 295/1/4
f 294/3/4 291/3/4 295/3/4
f 293/3/4 294/3/4 295/3/4
f 292/1/4 286/1/4 296/1/4
f 295/1/4 292/1/4 296/1/4
f 293/3/4 295/3/4 297/3/4
f 295/3/4 296/3/4 297/3/4
f 296/1/4 286/1/4 298/1/4
f 297/3/4 296/3/4 298/3/4
f 293/3/4 297/3/4 299/3/4
f 229/2/4 293/2/4 299/2/4
f 299/3/4 297/3/4 300/3/4
f 229/2/4 299/2/4 301/2/4
f 299/2/4 300/2/4 301/2/4
f 300/3/4 297/3/4 302/3/4
f 301/2/4 300/2/4 302/2/4
f 297/1/4 298/1/4 303/1/4
f 302/3/4 297/3/4 303/3/4
f 298/1/4 286/1/4 304/1/4
f 303/1/4 298/1/4 304/1/4
f 286/1/4 232/1/4 304/1/4
f 307/2/5 306/2/5 305/2/5
f 308/2/5 306/2/5 307/2/5
f 309/1/6 310/1/6 311/1/6
f 311/1/6 310/1/6 312/1/6
