# MagicaVoxel @ Ephtracy

# group
o 

# material
mtllib stairs.mtl
usemtl palette

# normals
vn -1 0 0
vn 1 0 0
vn 0 0 1
vn 0 0 -1
vn 0 -1 0
vn 0 1 0

# texcoords
vt 0.396484 0.5
vt 0.560547 0.5
vt 0.845703 0.5

# verts
v -2 0 2
v -2 0 -2
v -2 0.3 2
v -2 0.3 -2
v -1.5 0.3 2
v -1.5 0.3 -2
v -1.5 0.6 2
v -1.5 0.6 -2
v -1 0.6 2
v -1 0.6 -2
v -1 0.8 2
v -1 0.8 -2
v -0.5 0.8 2
v -0.5 0.8 -2
v -0.5 1.1 2
v -0.5 1.1 -2
v 2.38419e-07 1.1 2
v 2.38419e-07 1.1 -2
v 2.38419e-07 1.3 2
v 2.38419e-07 1.3 -2
v 0.5 1.3 2
v 0.5 1.3 -2
v 0.5 1.5 2
v 0.5 1.5 -2
v 1 1.5 2
v 1 1.5 -2
v 1 1.7 2
v 1 1.7 -2
v 1.5 1.7 2
v 1.5 1.7 -2
v 1.5 2 2
v 1.5 2 -2
v 2 0 2
v 2 0 -2
v 2 0.2 2
v 2 0.2 -2
v 2 0.3 2
v 2 0.3 -2
v 2 0.7 2
v 2 0.7 -2
v 2 0.8 2
v 2 0.8 -2
v 2 1.2 2
v 2 1.2 -2
v 2 1.3 2
v 2 1.3 -2
v 2 1.6 2
v 2 1.6 -2
v 2 1.7 2
v 2 1.7 -2
v 2 2 2
v 2 2 -2
v -2 0 2
v -2 0.3 2
v -1.5 0 2
v -1.5 0.3 2
v -1.5 0.6 2
v -1.4 0 2
v -1.4 0.2 2
v -1 0.6 2
v -1 0.8 2
v -0.5 0.3 2
v -0.5 0.8 2
v -0.5 1.1 2
v -0.4 0.3 2
v -0.4 0.7 2
v 2.38419e-07 1.1 2
v 2.38419e-07 1.3 2
v 0.2 0.3 2
v 0.2 0.7 2
v 0.3 0.3 2
v 0.3 0.7 2
v 0.5 0 2
v 0.5 0.2 2
v 0.5 1.3 2
v 0.5 1.5 2
v 0.6 0 2
v 0.6 0.2 2
v 0.6 0.8 2
v 0.6 1.3 2
v 0.7 0.8 2
v 0.7 1.2 2
v 0.9 0.3 2
v 0.9 0.7 2
v 1 0.3 2
v 1 0.7 2
v 1 1.5 2
v 1 1.7 2
v 1.2 0.8 2
v 1.2 1.2 2
v 1.3 0.8 2
v 1.3 1.2 2
v 1.5 1.3 2
v 1.5 1.7 2
v 1.5 2 2
v 1.6 1.3 2
v 1.6 1.6 2
v 1.7 0.3 2
v 1.7 0.7 2
v 1.8 0.3 2
v 1.8 0.7 2
v 2 0 2
v 2 0.2 2
v 2 0.3 2
v 2 0.7 2
v 2 0.8 2
v 2 1.2 2
v 2 1.3 2
v 2 1.6 2
v 2 1.7 2
v 2 2 2
v -2 0 -2
v -2 0.3 -2
v -1.5 0 -2
v -1.5 0.3 -2
v -1.5 0.6 -2
v -1.4 0 -2
v -1.4 0.2 -2
v -1 0.6 -2
v -1 0.8 -2
v -0.8 0 -2
v -0.8 0.2 -2
v -0.7 0 -2
v -0.7 0.2 -2
v -0.5 0.3 -2
v -0.5 0.8 -2
v -0.5 1.1 -2
v -0.4 0.3 -2
v -0.4 0.7 -2
v 2.38419e-07 1.1 -2
v 2.38419e-07 1.3 -2
v 0.2 0.3 -2
v 0.2 0.7 -2
v 0.3 0.3 -2
v 0.3 0.7 -2
v 0.5 0.8 -2
v 0.5 1.3 -2
v 0.5 1.5 -2
v 0.6 0.8 -2
v 0.6 1.2 -2
v 0.9 0 -2
v 0.9 0.2 -2
v 1 0 -2
v 1 0.2 -2
v 1 1.5 -2
v 1 1.7 -2
v 1.2 0.8 -2
v 1.2 1.2 -2
v 1.3 0.8 -2
v 1.3 1.2 -2
v 1.5 0.3 -2
v 1.5 0.7 -2
v 1.5 1.3 -2
v 1.5 1.7 -2
v 1.5 2 -2
v 1.6 0.3 -2
v 1.6 0.7 -2
v 1.6 1.3 -2
v 1.6 1.6 -2
v 2 0 -2
v 2 0.2 -2
v 2 0.3 -2
v 2 0.7 -2
v 2 0.8 -2
v 2 1.2 -2
v 2 1.3 -2
v 2 1.6 -2
v 2 1.7 -2
v 2 2 -2
v -2 0 2
v -1.5 0 2
v -1.4 0 2
v 0.5 0 2
v 0.6 0 2
v 2 0 2
v -1.5 0 1.9
v -1.4 0 1.9
v 0.5 0 1.9
v 0.6 0 1.9
v -1.5 0 -1.9
v -1.4 0 -1.9
v -0.8 0 -1.9
v -0.7 0 -1.9
v 0.9 0 -1.9
v 1 0 -1.9
v -2 0 -2
v -1.5 0 -2
v -1.4 0 -2
v -0.8 0 -2
v -0.7 0 -2
v 0.9 0 -2
v 1 0 -2
v 2 0 -2
v -2 0.3 2
v -1.5 0.3 2
v -2 0.3 -2
v -1.5 0.3 -2
v -1.5 0.6 2
v -1 0.6 2
v -1.5 0.6 -2
v -1 0.6 -2
v -1 0.8 2
v -0.5 0.8 2
v -1 0.8 -2
v -0.5 0.8 -2
v -0.5 1.1 2
v 2.38419e-07 1.1 2
v -0.5 1.1 -2
v 2.38419e-07 1.1 -2
v 2.38419e-07 1.3 2
v 0.5 1.3 2
v 2.38419e-07 1.3 -2
v 0.5 1.3 -2
v 0.5 1.5 2
v 1 1.5 2
v 0.5 1.5 -2
v 1 1.5 -2
v 1 1.7 2
v 1.5 1.7 2
v 1 1.7 -2
v 1.5 1.7 -2
v 1.5 2 2
v 2 2 2
v 1.5 2 -2
v 2 2 -2

# faces
f 3/1/1 2/1/1 1/1/1
f 4/1/1 2/1/1 3/1/1
f 7/1/1 6/1/1 5/1/1
f 8/1/1 6/1/1 7/1/1
f 11/1/1 10/1/1 9/1/1
f 12/1/1 10/1/1 11/1/1
f 15/1/1 14/1/1 13/1/1
f 16/1/1 14/1/1 15/1/1
f 19/1/1 18/1/1 17/1/1
f 20/1/1 18/1/1 19/1/1
f 23/1/1 22/1/1 21/1/1
f 24/1/1 22/1/1 23/1/1
f 27/1/1 26/1/1 25/1/1
f 28/1/1 26/1/1 27/1/1
f 31/1/1 30/1/1 29/1/1
f 32/1/1 30/1/1 31/1/1
f 33/2/2 34/2/2 35/2/2
f 35/2/2 34/2/2 36/2/2
f 35/3/2 36/3/2 37/3/2
f 37/3/2 36/3/2 38/3/2
f 37/2/2 38/2/2 39/2/2
f 39/2/2 38/2/2 40/2/2
f 39/3/2 40/3/2 41/3/2
f 41/3/2 40/3/2 42/3/2
f 41/2/2 42/2/2 43/2/2
f 43/2/2 42/2/2 44/2/2
f 43/3/2 44/3/2 45/3/2
f 45/3/2 44/3/2 46/3/2
f 45/2/2 46/2/2 47/2/2
f 47/2/2 46/2/2 48/2/2
f 47/3/2 48/3/2 49/3/2
f 49/3/2 48/3/2 50/3/2
f 49/1/2 50/1/2 51/1/2
f 51/1/2 50/1/2 52/1/2
f 55/1/3 54/1/3 53/1/3
f 56/1/3 54/1/3 55/1/3
f 58/3/3 56/3/3 55/3/3
f 59/3/3 56/3/3 58/3/3
f 60/1/3 57/1/3 56/1/3
f 62/3/3 56/3/3 59/3/3
f 62/1/3 61/1/3 60/1/3
f 62/1/3 60/1/3 56/1/3
f 63/1/3 61/1/3 62/1/3
f 65/3/3 62/3/3 59/3/3
f 65/3/3 63/3/3 62/3/3
f 66/3/3 63/3/3 65/3/3
f 67/1/3 64/1/3 63/1/3
f 69/3/3 65/3/3 59/3/3
f 69/2/3 66/2/3 65/2/3
f 70/3/3 63/3/3 66/3/3
f 70/2/3 66/2/3 69/2/3
f 71/3/3 69/3/3 59/3/3
f 71/3/3 70/3/3 69/3/3
f 72/3/3 63/3/3 70/3/3
f 72/3/3 70/3/3 71/3/3
f 73/2/3 59/2/3 58/2/3
f 74/3/3 71/3/3 59/3/3
f 74/2/3 59/2/3 73/2/3
f 75/1/3 68/1/3 67/1/3
f 77/3/3 74/3/3 73/3/3
f 78/3/3 71/3/3 74/3/3
f 78/3/3 74/3/3 77/3/3
f 79/3/3 63/3/3 72/3/3
f 79/1/3 67/1/3 63/1/3
f 79/1/3 76/1/3 75/1/3
f 79/1/3 75/1/3 67/1/3
f 80/1/3 76/1/3 79/1/3
f 81/3/3 79/3/3 72/3/3
f 81/3/3 80/3/3 79/3/3
f 82/3/3 80/3/3 81/3/3
f 83/3/3 71/3/3 78/3/3
f 83/2/3 72/2/3 71/2/3
f 84/3/3 81/3/3 72/3/3
f 84/2/3 72/2/3 83/2/3
f 85/3/3 83/3/3 78/3/3
f 85/3/3 84/3/3 83/3/3
f 86/3/3 81/3/3 84/3/3
f 86/3/3 84/3/3 85/3/3
f 87/1/3 76/1/3 80/1/3
f 89/2/3 82/2/3 81/2/3
f 89/3/3 81/3/3 86/3/3
f 90/3/3 80/3/3 82/3/3
f 90/2/3 82/2/3 89/2/3
f 91/3/3 89/3/3 86/3/3
f 91/3/3 90/3/3 89/3/3
f 92/3/3 80/3/3 90/3/3
f 92/3/3 90/3/3 91/3/3
f 93/1/3 88/1/3 87/1/3
f 93/3/3 80/3/3 92/3/3
f 93/1/3 87/1/3 80/1/3
f 94/1/3 88/1/3 93/1/3
f 96/3/3 93/3/3 92/3/3
f 96/3/3 94/3/3 93/3/3
f 97/3/3 94/3/3 96/3/3
f 98/2/3 86/2/3 85/2/3
f 98/3/3 85/3/3 78/3/3
f 99/3/3 91/3/3 86/3/3
f 99/2/3 86/2/3 98/2/3
f 100/3/3 98/3/3 78/3/3
f 100/3/3 99/3/3 98/3/3
f 101/3/3 91/3/3 99/3/3
f 101/3/3 99/3/3 100/3/3
f 102/2/3 78/2/3 77/2/3
f 103/3/3 100/3/3 78/3/3
f 103/2/3 78/2/3 102/2/3
f 104/2/3 101/2/3 100/2/3
f 104/3/3 100/3/3 103/3/3
f 105/3/3 91/3/3 101/3/3
f 105/2/3 101/2/3 104/2/3
f 106/2/3 92/2/3 91/2/3
f 106/3/3 91/3/3 105/3/3
f 107/3/3 96/3/3 92/3/3
f 107/2/3 92/2/3 106/2/3
f 108/2/3 97/2/3 96/2/3
f 108/3/3 96/3/3 107/3/3
f 109/3/3 94/3/3 97/3/3
f 109/2/3 97/2/3 108/2/3
f 110/1/3 95/1/3 94/1/3
f 110/3/3 94/3/3 109/3/3
f 111/1/3 95/1/3 110/1/3
f 112/1/4 113/1/4 114/1/4
f 114/1/4 113/1/4 115/1/4
f 114/3/4 115/3/4 117/3/4
f 117/3/4 115/3/4 118/3/4
f 115/1/4 116/1/4 119/1/4
f 117/2/4 118/2/4 121/2/4
f 118/3/4 115/3/4 122/3/4
f 121/2/4 118/2/4 122/2/4
f 121/3/4 122/3/4 123/3/4
f 122/3/4 115/3/4 124/3/4
f 123/3/4 122/3/4 124/3/4
f 119/1/4 120/1/4 125/1/4
f 124/3/4 115/3/4 125/3/4
f 115/1/4 119/1/4 125/1/4
f 125/1/4 120/1/4 126/1/4
f 124/3/4 125/3/4 128/3/4
f 125/3/4 126/3/4 128/3/4
f 128/3/4 126/3/4 129/3/4
f 126/1/4 127/1/4 130/1/4
f 124/3/4 128/3/4 132/3/4
f 128/2/4 129/2/4 132/2/4
f 129/3/4 126/3/4 133/3/4
f 132/2/4 129/2/4 133/2/4
f 124/3/4 132/3/4 134/3/4
f 132/3/4 133/3/4 134/3/4
f 133/3/4 126/3/4 135/3/4
f 134/3/4 133/3/4 135/3/4
f 130/1/4 131/1/4 136/1/4
f 135/3/4 126/3/4 136/3/4
f 126/1/4 130/1/4 136/1/4
f 136/1/4 131/1/4 137/1/4
f 135/3/4 136/3/4 139/3/4
f 136/3/4 137/3/4 139/3/4
f 139/3/4 137/3/4 140/3/4
f 123/2/4 124/2/4 141/2/4
f 124/3/4 134/3/4 142/3/4
f 141/2/4 124/2/4 142/2/4
f 141/3/4 142/3/4 143/3/4
f 142/3/4 134/3/4 144/3/4
f 143/3/4 142/3/4 144/3/4
f 137/1/4 138/1/4 145/1/4
f 135/3/4 139/3/4 147/3/4
f 139/2/4 140/2/4 147/2/4
f 140/3/4 137/3/4 148/3/4
f 147/2/4 140/2/4 148/2/4
f 135/3/4 147/3/4 149/3/4
f 147/3/4 148/3/4 149/3/4
f 148/3/4 137/3/4 150/3/4
f 149/3/4 148/3/4 150/3/4
f 134/2/4 135/2/4 151/2/4
f 144/3/4 134/3/4 151/3/4
f 135/3/4 149/3/4 152/3/4
f 151/2/4 135/2/4 152/2/4
f 150/3/4 137/3/4 153/3/4
f 145/1/4 146/1/4 153/1/4
f 137/1/4 145/1/4 153/1/4
f 153/1/4 146/1/4 154/1/4
f 144/3/4 151/3/4 156/3/4
f 151/3/4 152/3/4 156/3/4
f 152/3/4 149/3/4 157/3/4
f 156/3/4 152/3/4 157/3/4
f 153/3/4 154/3/4 158/3/4
f 150/3/4 153/3/4 158/3/4
f 158/3/4 154/3/4 159/3/4
f 143/2/4 144/2/4 160/2/4
f 144/3/4 156/3/4 161/3/4
f 160/2/4 144/2/4 161/2/4
f 156/2/4 157/2/4 162/2/4
f 161/3/4 156/3/4 162/3/4
f 157/3/4 149/3/4 163/3/4
f 162/2/4 157/2/4 163/2/4
f 149/2/4 150/2/4 164/2/4
f 163/3/4 149/3/4 164/3/4
f 150/3/4 158/3/4 165/3/4
f 164/2/4 150/2/4 165/2/4
f 158/2/4 159/2/4 166/2/4
f 165/3/4 158/3/4 166/3/4
f 159/3/4 154/3/4 167/3/4
f 166/2/4 159/2/4 167/2/4
f 154/1/4 155/1/4 168/1/4
f 167/3/4 154/3/4 168/3/4
f 168/1/4 155/1/4 169/1/4
f 176/1/5 171/1/5 170/1/5
f 176/3/5 172/3/5 171/3/5
f 177/2/5 173/2/5 172/2/5
f 177/3/5 172/3/5 176/3/5
f 178/3/5 174/3/5 173/3/5
f 178/2/5 173/2/5 177/2/5
f 179/2/5 175/2/5 174/2/5
f 179/3/5 174/3/5 178/3/5
f 180/2/5 178/2/5 177/2/5
f 180/2/5 177/2/5 176/2/5
f 180/2/5 179/2/5 178/2/5
f 180/1/5 176/1/5 170/1/5
f 181/2/5 179/2/5 180/2/5
f 182/2/5 179/2/5 181/2/5
f 183/2/5 179/2/5 182/2/5
f 184/2/5 175/2/5 179/2/5
f 184/2/5 179/2/5 183/2/5
f 185/2/5 175/2/5 184/2/5
f 186/1/5 180/1/5 170/1/5
f 187/3/5 181/3/5 180/3/5
f 187/1/5 180/1/5 186/1/5
f 188/2/5 182/2/5 181/2/5
f 188/3/5 181/3/5 187/3/5
f 189/3/5 183/3/5 182/3/5
f 189/2/5 182/2/5 188/2/5
f 190/2/5 184/2/5 183/2/5
f 190/3/5 183/3/5 189/3/5
f 191/3/5 185/3/5 184/3/5
f 191/2/5 184/2/5 190/2/5
f 192/2/5 175/2/5 185/2/5
f 192/3/5 185/3/5 191/3/5
f 193/2/5 175/2/5 192/2/5
f 194/1/6 195/1/6 196/1/6
f 196/1/6 195/1/6 197/1/6
f 198/1/6 199/1/6 200/1/6
f 200/1/6 199/1/6 201/1/6
f 202/1/6 203/1/6 204/1/6
f 204/1/6 203/1/6 205/1/6
f 206/1/6 207/1/6 208/1/6
f 208/1/6 207/1/6 209/1/6
f 210/1/6 211/1/6 212/1/6
f 212/1/6 211/1/6 213/1/6
f 214/1/6 215/1/6 216/1/6
f 216/1/6 215/1/6 217/1/6
f 218/1/6 219/1/6 220/1/6
f 220/1/6 219/1/6 221/1/6
f 222/1/6 223/1/6 224/1/6
f 224/1/6 223/1/6 225/1/6
